<svg xmlns="http://www.w3.org/2000/svg" width="150" height="135"><g fill="#FFF"><path d="M41.5 48.1c-.1-.2-.1-.5-.2-.7-.7-3.1-1.3-6.3-1.6-9.5-.2-2.4-.3-4.8-.1-7.2.2-2.9.7-5.7 2-8.3 1-2 2.3-3.8 4.2-4.9 1.9-1.1 4-1.5 6.2-1.4 3.6.2 6.9 1.4 10.1 3.1 3.8 2 7.2 4.5 10.4 7.3l2.4 2.1.2.2c.6-.6 1.2-1.1 1.8-1.7 3.5-3.2 7.3-6 11.5-8.2 2.4-1.2 4.8-2.2 7.4-2.6 2.3-.4 4.6-.4 6.9.5 1.9.7 3.3 2 4.5 3.7 1.4 2.1 2.2 4.5 2.7 6.9.7 3.4.7 6.8.5 10.2-.2 3.5-.8 6.9-1.6 10.3-.1.3 0 .4.3.5 3.3 1 6.5 2.1 9.6 3.6 3.3 1.6 6.5 3.4 9.2 5.9 1.6 1.4 3 3.1 4 5 1.7 3.3 1.5 6.5-.3 9.7-1.1 2-2.7 3.7-4.5 5.2-2.6 2.2-5.6 4-8.7 5.5-3 1.4-6 2.6-9.2 3.5-.1 0-.2.1-.3.1l.3 1.5c.7 3.1 1.2 6.1 1.4 9.3.2 2.9.1 5.8-.3 8.7-.4 2.6-1.1 5.2-2.5 7.5-1.5 2.5-3.6 4.2-6.4 4.9-1.8.4-3.5.4-5.3.1-3.5-.6-6.7-2-9.7-3.8-3.9-2.3-7.4-5.2-10.7-8.3l-.3-.3c-.2.2-.4.3-.6.5-3.1 2.9-6.4 5.5-10 7.7-2.8 1.6-5.7 3-8.8 3.8-2.3.6-4.5.8-6.9.3-2.9-.6-5-2.2-6.5-4.7-1.3-2-2-4.3-2.4-6.6-.6-3.3-.6-6.6-.3-9.9.3-3.4.9-6.8 1.7-10.2v-.2c-.1 0-.2-.1-.3-.1-4.5-1.3-8.9-3.1-12.9-5.5-2.7-1.6-5.2-3.4-7.3-5.8-1.6-1.8-2.9-3.9-3.5-6.3-.6-2.5-.1-4.8 1.1-7 1.1-2.1 2.7-3.8 4.6-5.4 2.7-2.3 5.8-4 9-5.5 3-1.4 6-2.4 9.1-3.3-.2-.1-.1-.1.1-.2zm33.3 38.1v-.1h5.1l5.4-.3c.2 0 .3-.1.4-.3l1.2-1.8c3.3-5.2 6.4-10.5 9.1-16 .1-.2.2-.3 0-.5-3.1-6.1-6.5-12.1-10.3-17.7-.1-.2-.2-.2-.4-.2-2.3-.1-4.5-.3-6.8-.3-4.6-.1-9.2 0-13.8.3-.2 0-.3.1-.5.3C60.4 55.2 57 61.1 54 67.2c-.1.3-.2.5 0 .9 2.9 6 6.2 11.7 9.9 17.2.4.5.8.8 1.4.8 3.2-.1 6.4 0 9.5.1zm-32-33.3c-.1 0-.2 0-.3.1-2.9.8-5.7 1.8-8.4 3.1-2.8 1.3-5.4 2.8-7.8 4.7-1.4 1.2-2.7 2.4-3.5 4.1-.6 1.1-.9 2.3-.6 3.6.3 1.3 1 2.5 1.9 3.5 1.8 2.2 4.1 3.9 6.6 5.3 3.5 2 7.1 3.5 11 4.7l1.2.3c0-.1.1-.2.1-.3 1.5-4.9 3.4-9.6 5.5-14.2.1-.3.1-.5 0-.7-1.9-4.2-3.6-8.4-5-12.8-.4-.4-.5-.9-.7-1.4zm3.4 35.4c0 .1-.1.3-.1.4-.7 2.9-1.2 5.9-1.5 8.9-.3 2.9-.3 5.8.2 8.7.3 1.8.8 3.5 1.7 5.1.9 1.5 2.1 2.4 3.8 2.6 1.2.1 2.4 0 3.6-.2 2.6-.5 4.9-1.6 7.2-2.8 3.6-2 6.8-4.5 9.8-7.3.3-.2.5-.5.8-.7l-2.4-2.7c-2.6-3-5.1-6.1-7.4-9.4-.1-.1-.3-.3-.4-.3-1.5-.2-3-.3-4.5-.4-2.9-.3-5.9-.8-8.8-1.4-.6-.2-1.3-.3-2-.5zm57.9-.2c-.1 0-.2 0-.3.1-2.4.5-4.8 1-7.3 1.4-2.6.4-5.2.6-7.9 1-.1 0-.3.1-.4.2-2.9 4.1-6 8.1-9.4 11.9-.1.1-.1.2-.2.3.1.1.2.1.2.2 1.8 1.7 3.7 3.3 5.6 4.8 2.6 2 5.4 3.7 8.5 4.9 1.7.7 3.5 1.2 5.4 1.2 2.3.1 4-.8 5.1-2.8.4-.8.8-1.6 1.1-2.5.8-2.5 1.1-5 1.1-7.6 0-3.6-.4-7.2-1.1-10.8-.1-.8-.3-1.5-.4-2.3zM71.6 32.3l-.2-.2c-2.4-2.3-4.9-4.4-7.7-6.2-2.4-1.6-4.8-3-7.5-3.9-1.6-.6-3.3-1-5.1-.9-1.2 0-2.4.3-3.3 1.1-.8.7-1.3 1.6-1.8 2.5-1 2.3-1.3 4.7-1.5 7.1-.1 2.2 0 4.4.2 6.7.3 2.8.8 5.5 1.5 8.2.1.2.1.3.3.2 1.9-.4 3.8-.8 5.7-1.1 3.1-.5 6.1-.8 9.2-1.2.2 0 .4-.1.5-.3 2-2.8 4.1-5.6 6.4-8.2 1.1-1.3 2.2-2.5 3.3-3.8zM103.8 47c0-.1 0-.1 0 0 .1-.2.1-.3.1-.4.9-3.7 1.5-7.5 1.6-11.3.1-2.5-.1-5-.6-7.4-.3-1.6-.9-3.2-1.8-4.6-.7-1.1-1.6-1.9-2.9-2.2-1.3-.3-2.7-.2-4 .1-2.3.5-4.5 1.5-6.6 2.6-4 2.3-7.6 5.1-10.9 8.3l-.2.2c.1.1.2.2.2.3 1.3 1.5 2.6 2.9 3.9 4.5 1.9 2.4 3.7 4.8 5.5 7.2.1.1.2.2.4.2 1.4.2 2.9.3 4.3.5 2.6.4 5.3.8 7.9 1.3 1 .2 2 .5 3.1.7zm3.5 6c0 .1-.1.2-.1.3-1.5 4.7-3.3 9.3-5.4 13.8-.1.3-.1.5 0 .7 2.1 4.5 4.1 9.2 5.6 14 .1.3.2.3.5.2 3.5-1.1 7-2.4 10.3-4.2 2.5-1.3 4.8-2.9 6.8-4.8 1-1 1.9-2.1 2.5-3.4.7-1.5.7-2.9-.1-4.4-.5-.9-1.1-1.8-1.8-2.5-1.8-2-4-3.5-6.4-4.8-3.3-1.9-6.8-3.3-10.4-4.4-.5-.2-1-.4-1.5-.5zm-8.5 20.2c-2.1 4.1-4.4 8.1-6.9 12 1.2 0 10.1-1.5 10.8-1.9-.3-1.4-3.3-9.2-3.9-10.1zM58.2 85.3c-2.5-3.9-4.8-7.9-6.9-12-1.4 3.4-2.7 6.8-3.8 10.2 3.6.8 7.1 1.4 10.7 1.8zM68.3 91c2.2 2.9 4.5 5.6 6.9 8.3 2.4-2.7 4.6-5.4 6.8-8.3H68.3zm-.1-46.9c4.6-.2 9.1-.2 13.7 0-.7-1.2-6.1-7.7-6.8-8.2-2.5 2.6-4.7 5.3-6.9 8.2zm30.6 17.5c1.4-3.2 2.6-6.5 3.7-9.8-1.1-.4-9.7-1.9-10.4-1.8 2.2 3.8 4.4 7.7 6.7 11.6zM58.1 49.9c-1.1 0-9.6 1.4-10.4 1.8.1 1 3.3 9.5 3.7 9.9 2-4 4.3-7.9 6.7-11.7z"/><path d="M64.7 67.4c0-5.7 4.7-10.3 10.4-10.3s10.3 4.6 10.3 10.3c0 5.7-4.7 10.4-10.4 10.3-5.7 0-10.3-4.6-10.3-10.3z"/></g></svg>